<svg xmlns="http://www.w3.org/2000/svg" viewBox="0 0 512 512" style="height: 512px; width: 512px;"><circle cx="256" cy="256" r="256" fill="url(#pattern)" fill-opacity="1"></circle><svg><defs><linearGradient id="a" x1="240" y1="16" x2="240" y2="496" gradientUnits="userSpaceOnUse"><stop offset="0" stop-color="#7d787a"></stop><stop offset="1" stop-color="#423e44"></stop></linearGradient></defs><path fill="url(#a)" d="M0 0h512v512H0z" fill-rule="evenodd"></path><path d="M8 0l30.63 37.93 259.87-9.84 178.4 11.95L504 0H204.7l-10.2 8.779L159.4 0z" overflow="visible" fill="#fff" fill-rule="evenodd" fill-opacity=".269"></path><path d="M2.809 511.6l42.841-40.7L184 468.5l27.4 26.6 10.5-23.8 250.1 7 6.7 18.3 29.3 15.7z" overflow="visible" fill-rule="evenodd" fill-opacity=".24"></path><path d="M511.7 16.15l-39.1 50.39-2 324.26 10.1 19.9-7.3 53.5 20.9 9.1 18 23.8L512 215l-15.5-28.8 15.4-11.4z" overflow="visible" fill-rule="evenodd" fill-opacity=".19"></path><path d="M0 15.18L35.12 61.1l-8.61 93.8 10.19 13.9-5.13 97.4-14.85 18.9 12.62 23.3 7.5 83.9v57.4L-.743 496.5z" overflow="visible" fill="#fff" fill-rule="evenodd" fill-opacity=".099"></path><path d="M51.56 56.62L43.16 141l10.74 22.4-8.99 103.7-10.46 17.5 7.05 21.8 10.61 116.8 21.9 32.6 109.29.5 34.2-12.4 6.5 12.5 235.3 2.3 6.9-33.9-13.7-12.6 6.2-20.4-6-331.94-150-14.62-29.5 1.34-1.4 25.57-60.4-22.77z" overflow="visible" fill="#797677" fill-rule="evenodd" fill-opacity=".434"></path></svg><g class="" transform="translate(0,0)" style=""><path d="M281.293 94.283a9 9 0 0 1-.23.203c-.027.023-.048.046-.073.07.113-.103.143-.126.303-.273zm.754.62c-.922-.026-1.59.26-1.79.333-18.276 16.014-26.02 33.42-43.35 51.993-17.25 18.485-43.688 36.204-96.677 51.225l-31.087 42.13a9 9 0 0 1-7.163 3.657l-50.75.45-14.69-8.344-2.622 119.744 14.603-8.426h57.28a9 9 0 0 1 6.934 3.264c13.526 16.35 20.025 32.04 37.946 39.838l200.556 61.878c12.478-.538 22.443-2.015 28.625-5.568 5.266-3.025 8.892-7.468 10.952-16.584-5.457-2.305-23.53-9.945-47.185-19.853-13.495-5.652-27.03-11.294-37.236-15.494-5.103-2.1-9.382-3.842-12.37-5.027-1.492-.593-2.672-1.05-3.397-1.317-.208-.077-.253-.09-.367-.13-.157.023-.3.105-1.897-.677-.994-.486-4.692-10.586-4.692-10.588 0 0 5.642-6.027 6.47-6.234 2.54-.635 2.98-.25 3.483-.18.2.028.253.05.388.074.13.016.294.036.637.073.89.095 2.327.236 4.183.41 3.713.345 9.13.827 15.67 1.397 13.082 1.14 30.68 2.633 48.37 4.112 17.69 1.477 35.475 2.942 48.945 4.03 6.734.544 12.392.992 16.406 1.3 2.006.155 3.606.275 4.702.352.445.03.74.05 1 .065 7.954-.59 12.096-2.93 14.38-5.373 2.315-2.48 3.274-5.563 3.075-9.477-.392-7.7-6.855-16.7-13.162-18.697l-125.047-16.39a9 9 0 0 1 .357-17.886s34.4-3.114 69.246-6.35c17.425-1.62 34.963-3.27 48.35-4.575 6.695-.654 12.355-1.22 16.42-1.652 2.03-.215 3.67-.397 4.798-.533.516-.062 1.142-.195 1.516-.27 10.906-3.095 16.196-7.17 18.164-10.054 2.01-2.944 1.993-5.088.517-8.644-2.946-7.1-15.285-15.783-23.27-16.322l-140.36-3.662a9 9 0 0 1-1.555-17.817s30.514-6.195 61.904-12.542c15.695-3.174 31.608-6.386 44.04-8.88 12.434-2.496 20.85-4.184 23.35-4.617 9.49-1.643 13.86-5.275 16.143-9.164 2.282-3.888 2.655-8.88.996-14.175-2.902-9.267-11.46-17.814-23.172-18.067-1.672-.036-3.41.098-5.204.422a9 9 0 0 1-.19.03l-148.954 23.665c-7.51 10.38-14.5 15.897-23.953 22.977-2.022 57.078-12.448 85.543-27.33 100.578-15.283 15.436-34.4 14.424-40.335 15.908l-4.368-17.46c12.134-3.035 21.968-1.066 31.91-11.11 9.943-10.044 20.786-34.636 22.338-92.803a9 9 0 0 1 3.606-6.965c12.425-9.295 17.212-12.277 25.073-23.886l35.527-78.43c-1.064-7.994-5.013-11.687-9.64-13.893-2.5-1.192-5.197-1.74-7.043-1.79z" fill="#fff" fill-opacity="1"></path></g></svg>