<svg xmlns="http://www.w3.org/2000/svg" viewBox="0 0 512 512" style="height: 512px; width: 512px;"><circle cx="256" cy="256" r="256" fill="url(#pattern)" fill-opacity="1"></circle><svg><defs><linearGradient id="a" x1="240" y1="16" x2="240" y2="496" gradientUnits="userSpaceOnUse"><stop offset="0" stop-color="#7d787a"></stop><stop offset="1" stop-color="#423e44"></stop></linearGradient></defs><path fill="url(#a)" fill-rule="evenodd" d="M0 0h512v512H0z"></path><path d="M8 0l30.63 37.93 259.87-9.84 178.4 11.95L504 0H204.7l-10.2 8.779L159.4 0z" overflow="visible" fill="#fff" fill-opacity=".269" fill-rule="evenodd"></path><path d="M2.809 511.6l42.841-40.7L184 468.5l27.4 26.6 10.5-23.8 250.1 7 6.7 18.3 29.3 15.7z" overflow="visible" fill-opacity=".24" fill-rule="evenodd"></path><path d="M511.7 16.15l-39.1 50.39-2 324.26 10.1 19.9-7.3 53.5 20.9 9.1 18 23.8L512 215l-15.5-28.8 15.4-11.4z" overflow="visible" fill-opacity=".19" fill-rule="evenodd"></path><path d="M0 15.18L35.12 61.1l-8.61 93.8 10.19 13.9-5.13 97.4-14.85 18.9 12.62 23.3 7.5 83.9v57.4L-.743 496.5z" overflow="visible" fill="#fff" fill-opacity=".099" fill-rule="evenodd"></path><path d="M51.56 56.62L43.16 141l10.74 22.4-8.99 103.7-10.46 17.5 7.05 21.8 10.61 116.8 21.9 32.6 109.29.5 34.2-12.4 6.5 12.5 235.3 2.3 6.9-33.9-13.7-12.6 6.2-20.4-6-331.94-150-14.62-29.5 1.34-1.4 25.57-60.4-22.77z" overflow="visible" fill="#797677" fill-opacity=".434" fill-rule="evenodd"></path></svg><g class="" transform="translate(0,0)" style=""><path d="M291.28 113.14c-21.105-.197-46.504 4.78-76.186 15.538l-61.31 97.62a9 9 0 0 1-7.57 4.214l-105.65.613.278 118.38 94.486.743a9 9 0 0 1 8.53 6.354c7.957 25.855 26.634 40.548 49.097 49.65 18.63 7.55 39.57 10.712 57.074 11.95-.924-9.667-.874-20.846 1.69-31.51 1.845-7.666 5.07-15.214 10.843-21.23 4.665-4.864 11.064-8.425 18.566-9.9-2.417-8.75-1.9-17.564.358-25.414 3.358-11.673 9.468-22.114 14.11-31.853a9 9 0 0 1 .002-.025c.904-8.89.39-20.137 2.015-30.924.813-5.394 2.175-10.806 5.143-15.803 1.907-3.21 4.615-6.177 7.955-8.473l-11.76-29.533c-7.754 29.296-23.77 49.333-40.265 62.213-11.166 8.717-22.448 14.333-31.495 17.992-9.046 3.66-16.89 5.758-17.437 5.955l-6.104-16.933c3.808-1.373 8.865-2.503 16.79-5.71 7.927-3.205 17.69-8.092 27.167-15.49 18.955-14.8 37.084-39.063 38.16-83.08a9 9 0 0 1 17.36-3.11l26.15 65.67c13.382 6.284 22.786 6.51 31.265 3.968 7.728-2.317 15.188-7.56 23.012-13.512-3.2-26.703-10.97-53.765-21.06-81.12-12.893-20.23-30.257-31.92-54.5-35.87-5.236-.853-10.81-1.314-16.718-1.37zm128.425 34.286l-37.166 5.428c8.478 24.046 15.285 48.305 18.58 72.832 25.347 4.217 36.318-.862 54.722-5.698 5.58-20.544 7.754-38.29 3.863-49.715-2.1-6.165-5.503-10.796-11.75-14.734-6.097-3.844-15.258-6.83-28.25-8.114zm33.604 91.8c-15.195 4.203-30.293 8.315-55.456 4.157-9.19 7.16-19.212 14.996-32.14 18.87-12.515 3.753-27.416 3.04-44.187-4.792-1.482.74-2.348 1.687-3.293 3.276-1.194 2.01-2.206 5.216-2.82 9.29-.93 6.17-1.052 14.123-1.467 22.267 42.27 11.538 84.406 18.628 126.424 19.78 10.864-8.28 18.62-17.718 21.59-28.792 3.073-11.467 1.617-25.51-8.65-44.055zm-143.34 70.797c-4.47 9.197-9.032 17.62-11.183 25.1-2.734 9.505-2.687 16.425 5.14 25.7 30.633 19.38 65.708 25.593 102.438 30.464 12.98-8.606 24.286-17.244 29.422-26.133 5.3-9.17 6.31-18.654-3.71-35.334-40.81-1.786-81.518-8.768-122.106-19.797zm-19.943 62.38a9 9 0 0 1-2.386.44c-5.964.33-9.28 2.154-12.087 5.08-2.806 2.924-4.992 7.41-6.332 12.98-2.308 9.597-1.81 21.784-.493 31.19 29.334 14.184 59.095 25.29 93.064 26.41 19.342-4.057 26.193-10.234 30.187-17.71 3.1-5.802 4.263-13.514 5.814-22.45-35.73-4.915-72.027-11.895-104.85-33.11a9 9 0 0 1-1.852-1.592c-.364-.41-.716-.823-1.06-1.238z" fill="#fff" fill-opacity="1"></path></g></svg>